<svg xmlns="http://www.w3.org/2000/svg" xmlns:xlink="http://www.w3.org/1999/xlink" width="2.4in" height="2in" viewBox="0 0 171 144.8"><defs><style>.cls-1{fill:none;}.cls-2{fill:#b6bd00;}.cls-3{fill:#5e0d8b;}.cls-4{fill:#008aab;}.cls-5{fill:#752f8a;}.cls-6{clip-path:url(#clip-path);}.cls-7{fill:#31366f;}.cls-8{clip-path:url(#clip-path-2);}.cls-9{fill:#593653;}.cls-10{fill:#00855d;}</style><clipPath id="clip-path"><path id="SVGID" class="cls-1" d="M123.1,28.6a41.7,41.7,0,0,0-18.6,78.9l5.9-11.7a28.6,28.6,0,1,1,25.5,0l5.9,11.7a41.7,41.7,0,0,0-18.6-78.9Z"/></clipPath><clipPath id="clip-path-2"><path id="SVGID-2" data-name="SVGID" class="cls-2" d="M48.6,28.6a41.7,41.7,0,0,0-18.6,78.9l5.9-11.7a28.6,28.6,0,1,1,25.5,0l5.9,11.7A41.7,41.7,0,0,0,48.6,28.6Z"/></clipPath></defs><title>nccnp-logo</title><g id="nccnp-logo"><path class="cls-3" d="M9.9,127.8a3.5,3.5,0,0,0-1.3-1.1,4,4,0,0,0-1.7-.4,4.5,4.5,0,0,0-1.9.4,4.4,4.4,0,0,0-1.5,1.1,4.9,4.9,0,0,0-.9,1.6,5.8,5.8,0,0,0-.3,2,5.5,5.5,0,0,0,.3,1.9,4.7,4.7,0,0,0,.9,1.6,4.3,4.3,0,0,0,1.5,1.1,4.7,4.7,0,0,0,2,.4,3.9,3.9,0,0,0,1.9-.4,4,4,0,0,0,1.4-1.2l1.4,1.1-.5.6-.9.7-1.4.6a6,6,0,0,1-1.9.3,6.2,6.2,0,0,1-2.7-.6,6.5,6.5,0,0,1-3.8-5.9,7.3,7.3,0,0,1,.5-2.7,6.3,6.3,0,0,1,1.3-2.1,6,6,0,0,1,2.1-1.4,6.9,6.9,0,0,1,2.6-.5,6.5,6.5,0,0,1,2.4.5,4.5,4.5,0,0,1,2,1.5Z"/><path class="cls-3" d="M14.2,133.9a2.1,2.1,0,0,0,.2,1,2.5,2.5,0,0,0,.6.8l.9.5,1.1.2a2.4,2.4,0,0,0,1.3-.3l1-.9,1.2.9a4.4,4.4,0,0,1-3.7,1.7,4.6,4.6,0,0,1-1.8-.3,3.9,3.9,0,0,1-1.4-.9,4.1,4.1,0,0,1-.9-1.4,4.9,4.9,0,0,1-.3-1.7,4.6,4.6,0,0,1,.3-1.7,4.3,4.3,0,0,1,.9-1.4,4.1,4.1,0,0,1,1.4-.9,4.4,4.4,0,0,1,1.7-.3,4.1,4.1,0,0,1,1.9.4,3.7,3.7,0,0,1,1.3,1,4,4,0,0,1,.7,1.4,5.9,5.9,0,0,1,.2,1.6v.6Zm5-1.3a3.3,3.3,0,0,0-.2-1,2.1,2.1,0,0,0-.5-.8l-.8-.5-1.1-.2-1.1.2-.8.6a2.7,2.7,0,0,0-.5.8,2.2,2.2,0,0,0-.2.9Z"/><path class="cls-3" d="M22.7,129.2h1.6v1.3h0a2.3,2.3,0,0,1,1-1.1A3.5,3.5,0,0,1,27,129l1.2.2,1,.6a2.8,2.8,0,0,1,.7,1,3.8,3.8,0,0,1,.2,1.4v5.4H28.5v-4.9a2.8,2.8,0,0,0-.2-1,1.8,1.8,0,0,0-.4-.7l-.6-.4h-.7l-.9.2-.7.5a2.4,2.4,0,0,0-.5.9,4,4,0,0,0-.2,1.3v4.3H22.7Z"/><path class="cls-3" d="M36.8,130.6H34.5v3.8c0,.2,0,.5,0,.7a1.8,1.8,0,0,0,.1.6l.4.4.7.2h.6l.5-.2v1.4l-.7.2h-.7a3.2,3.2,0,0,1-1.4-.3,1.7,1.7,0,0,1-.7-.7,2.1,2.1,0,0,1-.3-.9c0-.3,0-.7,0-1v-4.4H31.1v-1.4h1.8v-2.3h1.6v2.3h2.3Z"/><path class="cls-3" d="M39.9,133.9a2.1,2.1,0,0,0,.2,1,2.5,2.5,0,0,0,.6.8l.9.5,1.1.2A2.4,2.4,0,0,0,44,136l1-.9,1.2.9a4.4,4.4,0,0,1-3.7,1.7,4.6,4.6,0,0,1-1.8-.3,3.9,3.9,0,0,1-1.4-.9,4.1,4.1,0,0,1-.9-1.4,4.9,4.9,0,0,1-.3-1.7,4.6,4.6,0,0,1,.3-1.7,4.3,4.3,0,0,1,.9-1.4,4.1,4.1,0,0,1,1.4-.9,4.4,4.4,0,0,1,1.7-.3,4.1,4.1,0,0,1,1.9.4,3.7,3.7,0,0,1,1.3,1,4,4,0,0,1,.7,1.4,5.9,5.9,0,0,1,.2,1.6v.6Zm5-1.3a3.3,3.3,0,0,0-.2-1,2.1,2.1,0,0,0-.5-.8l-.8-.5-1.1-.2-1.1.2-.8.6a2.7,2.7,0,0,0-.5.8,2.2,2.2,0,0,0-.2.9Z"/><path class="cls-3" d="M48.3,129.2h1.6v1.3h0l.4-.6.6-.5.7-.3h1.5v1.7h-.8a2.3,2.3,0,0,0-1.8.7,2.9,2.9,0,0,0-.6,2v4.2H48.3Z"/><path class="cls-3" d="M59.6,129.7l.2-.9h1.7l.4-2.6c.5-3.1,2.6-4.8,4.2-4.8s2.4,1.2,2.2,1.9a.8.8,0,0,1-.8.7c-1.1,0-.1-1.8-1.6-1.8s-2,1.1-2.5,4.1l-.4,2.6h2.1l-.2.9H62.8l-1.9,10.6c-.6,3.1-1.9,4.2-3.4,4.2s-2.2-1.1-2.1-1.9a.8.8,0,0,1,.9-.7c1.1,0,.1,1.8,1.4,1.8s1.3-.9,1.7-3.4l1.9-10.6Z"/><path class="cls-3" d="M68.2,138c-2.2,0-3.6-2.2-3.1-4.8s2.7-4.8,4.8-4.8,3.6,2.2,3.1,4.8S70.4,138,68.2,138Zm1.5-8.8c-1.6,0-2.6,1.8-3,4s0,4,1.6,4,2.6-1.8,3-4S71.3,129.2,69.8,129.2Z"/><path class="cls-3" d="M80.3,128.4a1.2,1.2,0,0,1,1.3,1.5c-.1.3-.4,1.1-1.1,1.1a.7.7,0,0,1-.7-.8c.1-.4,0-.5-.2-.5s-2,1.7-2.7,5.5l-.4,2.5H75.1l1.2-7.1c.1-.7.1-1.1-.3-1.1a2,2,0,0,0-1,.6v-.6a2.9,2.9,0,0,1,1.7-.9c.9,0,1.3.7,1.1,1.8v.7C78.3,129.3,79.3,128.4,80.3,128.4Z"/><path class="cls-3" d="M87.6,125h2.2l6.9,10.3h0V125h1.7v12.5H96.3l-7-10.3h0v10.3H87.6Z"/><path class="cls-3" d="M100.7,133.4a4.3,4.3,0,0,1,.3-1.7,4.5,4.5,0,0,1,.9-1.4,4.5,4.5,0,0,1,6.3,0,4.5,4.5,0,0,1,.9,1.4,4.3,4.3,0,0,1,.3,1.7,4.4,4.4,0,0,1-1.3,3.1,4.5,4.5,0,0,1-1.4.9,4.6,4.6,0,0,1-3.5,0,4.5,4.5,0,0,1-1.4-.9,4.4,4.4,0,0,1-1.3-3.1Zm1.7,0a3.4,3.4,0,0,0,.2,1.2,2.6,2.6,0,0,0,.5.9l.9.6,1.1.2,1.1-.2.9-.6a2.7,2.7,0,0,0,.5-.9,3.6,3.6,0,0,0,0-2.3,2.7,2.7,0,0,0-.5-.9l-.9-.6-1.1-.2-1.1.2-.9.6a2.6,2.6,0,0,0-.5.9A3.4,3.4,0,0,0,102.4,133.4Z"/><path class="cls-3" d="M111.4,129.2H113v1.3h0a2.3,2.3,0,0,1,1-1.1,3.5,3.5,0,0,1,1.7-.4l1.2.2,1,.6a2.8,2.8,0,0,1,.7,1,3.8,3.8,0,0,1,.2,1.4v5.4h-1.6v-4.9a2.8,2.8,0,0,0-.2-1,1.8,1.8,0,0,0-.4-.7l-.6-.4h-.7l-.9.2-.7.5a2.4,2.4,0,0,0-.5.9,4,4,0,0,0-.2,1.3v4.3h-1.6Z"/><path class="cls-3" d="M121,129.2h1.6v1.2h0a3,3,0,0,1,1.3-1,3.9,3.9,0,0,1,1.7-.4,4.4,4.4,0,0,1,1.8.3,3.9,3.9,0,0,1,1.3.9,4.2,4.2,0,0,1,.9,1.4,5.1,5.1,0,0,1,0,3.5,4.1,4.1,0,0,1-.9,1.4,3.9,3.9,0,0,1-1.3.9,4.4,4.4,0,0,1-1.8.3,3.9,3.9,0,0,1-1.7-.4,2.9,2.9,0,0,1-1.2-1h0v6.2H121Zm4.3,1.3-1.1.2-.9.6a2.6,2.6,0,0,0-.5.9,3.6,3.6,0,0,0,0,2.3,2.6,2.6,0,0,0,.5.9l.9.6,1.1.2,1.1-.2.9-.6a2.7,2.7,0,0,0,.5-.9,3.6,3.6,0,0,0,0-2.3,2.7,2.7,0,0,0-.5-.9l-.9-.6Z"/><path class="cls-3" d="M131.6,129.2h1.6v1.3h0l.4-.6.6-.5.7-.3h1.5v1.7h-.8a2.3,2.3,0,0,0-1.8.7,2.9,2.9,0,0,0-.6,2v4.2h-1.6Z"/><path class="cls-3" d="M137.3,133.4a4.3,4.3,0,0,1,.3-1.7,4.5,4.5,0,0,1,.9-1.4,4.5,4.5,0,0,1,6.3,0,4.5,4.5,0,0,1,.9,1.4,4.3,4.3,0,0,1,.3,1.7,4.3,4.3,0,0,1-1.3,3.1,4.5,4.5,0,0,1-1.4.9,4.6,4.6,0,0,1-3.5,0,4.5,4.5,0,0,1-1.4-.9,4.4,4.4,0,0,1-1.3-3.1Zm1.7,0a3.4,3.4,0,0,0,.2,1.2,2.6,2.6,0,0,0,.5.9l.9.6,1.1.2,1.1-.2.9-.6a2.6,2.6,0,0,0,.5-.9,3.6,3.6,0,0,0,0-2.3,2.6,2.6,0,0,0-.5-.9l-.9-.6-1.1-.2-1.1.2-.9.6a2.6,2.6,0,0,0-.5.9A3.4,3.4,0,0,0,139,133.4Z"/><path class="cls-3" d="M148.6,130.6h-1.8v-1.4h1.8v-1.9a4,4,0,0,1,.6-2.5,2.7,2.7,0,0,1,2.2-.8h1.2l-.2,1.4h-1.6l-.4.4a1.5,1.5,0,0,0-.2.6,6.3,6.3,0,0,0,0,.8v1.9h1.9v1.4h-1.9v7h-1.6Z"/><path class="cls-3" d="M153.4,126.2a1.2,1.2,0,1,1,.3.8A1.1,1.1,0,0,1,153.4,126.2Zm.4,3h1.6v8.4h-1.6Z"/><path class="cls-3" d="M162.6,130.6h-2.3v3.8c0,.2,0,.5,0,.7a1.8,1.8,0,0,0,.1.6l.4.4.7.2h.6l.5-.2v1.4l-.7.2h-.7a3.2,3.2,0,0,1-1.4-.3,1.7,1.7,0,0,1-.7-.7,2.1,2.1,0,0,1-.3-.9c0-.3,0-.7,0-1v-4.4h-1.8v-1.4h1.8v-2.3h1.6v2.3h2.3Z"/><path class="cls-3" d="M168.9,131.3l-.7-.6-1-.2-1,.2a.8.8,0,0,0-.4.7.8.8,0,0,0,.2.6l.6.4.7.2h.6l1,.3.8.5a2,2,0,0,1,.5.7,2.4,2.4,0,0,1,.2,1,2.3,2.3,0,0,1-.3,1.2,2.5,2.5,0,0,1-.8.8l-1.1.5H167a4.8,4.8,0,0,1-1.8-.3,3.3,3.3,0,0,1-1.4-1.2l1.2-1,.9.7a2.1,2.1,0,0,0,1.2.3h.6l.5-.2.4-.3a.8.8,0,0,0,.2-.5.8.8,0,0,0-.2-.6l-.5-.4-.7-.2h-.6l-1-.3-.8-.4a2,2,0,0,1-.6-.7,2.2,2.2,0,0,1-.2-1,2.3,2.3,0,0,1,.3-1.1,2.4,2.4,0,0,1,.7-.8l1-.5,1.2-.2a4.2,4.2,0,0,1,1.6.3,2.6,2.6,0,0,1,1.2,1.1Z"/><path class="cls-3" d="M30,.8h2.2l6.9,10.3h0V.8h1.7V13.3H38.7l-7-10.3h0V13.3H30Z"/><path class="cls-3" d="M43,9.2a4.3,4.3,0,0,1,.3-1.7A4.5,4.5,0,0,1,44.3,6a4.5,4.5,0,0,1,6.3,0,4.5,4.5,0,0,1,.9,1.4,4.3,4.3,0,0,1,.3,1.7,4.4,4.4,0,0,1-1.3,3.1,4.5,4.5,0,0,1-1.4.9,4.6,4.6,0,0,1-3.5,0,4.5,4.5,0,0,1-1.4-.9A4.4,4.4,0,0,1,43,9.2Zm1.7,0a3.4,3.4,0,0,0,.2,1.2,2.6,2.6,0,0,0,.5.9l.9.6,1.1.2,1.1-.2.9-.6a2.6,2.6,0,0,0,.5-.9A3.6,3.6,0,0,0,50,8a2.6,2.6,0,0,0-.5-.9l-.9-.6-1.1-.2-1.1.2-.9.6a2.6,2.6,0,0,0-.5.9A3.4,3.4,0,0,0,44.7,9.2Z"/><path class="cls-3" d="M53.6,5h1.6V6.3h0l.4-.6.6-.5.7-.3h1.5V6.6h-.8a2.3,2.3,0,0,0-1.8.7,2.9,2.9,0,0,0-.6,2v4.2H53.6Z"/><path class="cls-3" d="M64.7,6.3H62.4v3.8c0,.2,0,.5,0,.7a1.8,1.8,0,0,0,.1.6l.4.4.7.2h.6l.5-.2v1.4l-.7.2h-.7a3.2,3.2,0,0,1-1.4-.3,1.7,1.7,0,0,1-.7-.7,2.1,2.1,0,0,1-.3-.9q0-.5,0-1V6.3H59V5h1.8V2.6h1.6V5h2.3Z"/><path class="cls-3" d="M66.5,0h1.6V6.3h0a2.3,2.3,0,0,1,1-1.1,3.5,3.5,0,0,1,1.7-.4l1.2.2,1,.6a2.8,2.8,0,0,1,.7,1A3.8,3.8,0,0,1,73.9,8v5.4H72.3V8.4a2.8,2.8,0,0,0-.2-1,1.8,1.8,0,0,0-.4-.7l-.6-.4h-.7l-.9.2-.7.5a2.4,2.4,0,0,0-.5.9A4,4,0,0,0,68.1,9v4.3H66.5Z"/><path class="cls-3" d="M89.8,3.5a3.5,3.5,0,0,0-1.3-1.1,4,4,0,0,0-1.7-.4,4.5,4.5,0,0,0-1.9.4,4.4,4.4,0,0,0-1.5,1.1,4.9,4.9,0,0,0-.9,1.6,5.8,5.8,0,0,0-.3,2,5.5,5.5,0,0,0,.3,1.9,4.7,4.7,0,0,0,.9,1.6,4.3,4.3,0,0,0,1.5,1.1,4.7,4.7,0,0,0,2,.4,3.9,3.9,0,0,0,1.9-.4,4,4,0,0,0,1.4-1.2l1.4,1.1L91,12l-.9.7-1.4.6a6,6,0,0,1-1.9.3,6.2,6.2,0,0,1-2.7-.6,6.5,6.5,0,0,1-3.8-5.9,7.3,7.3,0,0,1,.5-2.7,6.3,6.3,0,0,1,1.3-2.1A6,6,0,0,1,84.2,1,6.9,6.9,0,0,1,86.8.5a6.5,6.5,0,0,1,2.4.5,4.5,4.5,0,0,1,2,1.5Z"/><path class="cls-3" d="M92.9,6a4.4,4.4,0,0,1,1.6-.9,5.3,5.3,0,0,1,1.8-.3l1.6.2,1.1.6a2.4,2.4,0,0,1,.6.9,2.8,2.8,0,0,1,.2,1.1v4.3q0,.4,0,.8v.7H98.4q-.1-.6-.1-1.3h0A3,3,0,0,1,97,13.2a4,4,0,0,1-1.7.3l-1.1-.2-.9-.5a2.3,2.3,0,0,1-.6-.8,2.4,2.4,0,0,1-.2-1.1,2.4,2.4,0,0,1,.4-1.4,2.7,2.7,0,0,1,1-.9l1.5-.5h3V7.8a1.8,1.8,0,0,0-.1-.6l-.4-.6-.6-.4L96.2,6h-.8l-.6.2-.5.3-.4.3Zm4.5,3.3H96.2l-1.1.2-.8.5a1.1,1.1,0,0,0-.3.8,1.2,1.2,0,0,0,.5,1,2.4,2.4,0,0,0,1.3.3l1.1-.2.7-.6a2.2,2.2,0,0,0,.4-.8,3.1,3.1,0,0,0,.1-.9V9.3Z"/><path class="cls-3" d="M101.8,5h1.6V6.3h0l.4-.6.6-.5.7-.3h1.5V6.6h-.8a2.3,2.3,0,0,0-1.8.7,2.9,2.9,0,0,0-.6,2v4.2h-1.6Z"/><path class="cls-3" d="M107,9.2a4.3,4.3,0,0,1,.3-1.7,4.5,4.5,0,0,1,.9-1.4,4.5,4.5,0,0,1,6.3,0,4.5,4.5,0,0,1,.9,1.4,4.3,4.3,0,0,1,.3,1.7,4.4,4.4,0,0,1-1.3,3.1,4.5,4.5,0,0,1-1.4.9,4.6,4.6,0,0,1-3.5,0,4.5,4.5,0,0,1-1.4-.9A4.4,4.4,0,0,1,107,9.2Zm1.7,0a3.4,3.4,0,0,0,.2,1.2,2.6,2.6,0,0,0,.5.9l.9.6,1.1.2,1.1-.2.9-.6a2.7,2.7,0,0,0,.5-.9A3.6,3.6,0,0,0,114,8a2.7,2.7,0,0,0-.5-.9l-.9-.6-1.1-.2-1.1.2-.9.6a2.6,2.6,0,0,0-.5.9A3.4,3.4,0,0,0,108.7,9.2Z"/><path class="cls-3" d="M117.4,0h1.6V13.3h-1.6Z"/><path class="cls-3" d="M121,2a1.1,1.1,0,0,1,.3-.8,1.2,1.2,0,0,1,1.6,0,1.1,1.1,0,0,1,.3.8,1.1,1.1,0,0,1-.3.8,1.2,1.2,0,0,1-1.6,0A1.1,1.1,0,0,1,121,2Zm.4,3h1.6v8.4h-1.6Z"/><path class="cls-3" d="M125.2,5h1.6V6.3h0a2.3,2.3,0,0,1,1-1.1,3.5,3.5,0,0,1,1.7-.4l1.2.2,1,.6a2.8,2.8,0,0,1,.7,1,3.8,3.8,0,0,1,.2,1.4v5.4H131V8.4a2.8,2.8,0,0,0-.2-1,1.8,1.8,0,0,0-.4-.7l-.6-.4h-.7l-.9.2-.7.5a2.4,2.4,0,0,0-.5.9,4,4,0,0,0-.2,1.3v4.3h-1.6Z"/><path class="cls-3" d="M134.8,6a4.4,4.4,0,0,1,1.6-.9,5.3,5.3,0,0,1,1.8-.3l1.6.2,1.1.6a2.4,2.4,0,0,1,.6.9,2.8,2.8,0,0,1,.2,1.1v4.3q0,.4,0,.8v.7h-1.4q-.1-.6-.1-1.3h0a3,3,0,0,1-1.3,1.1,4,4,0,0,1-1.7.3l-1.1-.2-.9-.5a2.3,2.3,0,0,1-.6-.8,2.4,2.4,0,0,1-.2-1.1,2.4,2.4,0,0,1,.4-1.4,2.7,2.7,0,0,1,1-.9l1.5-.5h3V7.8a1.8,1.8,0,0,0-.1-.6l-.4-.6-.6-.4-.9-.2h-.8l-.6.2-.5.3-.4.3Zm4.5,3.3h-1.2l-1.1.2-.8.5a1.1,1.1,0,0,0-.3.8,1.2,1.2,0,0,0,.5,1,2.4,2.4,0,0,0,1.3.3l1.1-.2.7-.6a2.2,2.2,0,0,0,.4-.8,3.1,3.1,0,0,0,.1-.9V9.3Z"/><path class="cls-4" d="M123.1,28.6a41.7,41.7,0,0,0-18.6,78.9l5.9-11.7a28.6,28.6,0,1,1,25.5,0l5.9,11.7a41.7,41.7,0,0,0-18.6-78.9Z"/><path class="cls-5" d="M85.9,28.6a41.7,41.7,0,0,0-18.6,78.9l5.9-11.7a28.6,28.6,0,1,1,25.5,0l5.9,11.7A41.7,41.7,0,0,0,85.9,28.6Z"/><g class="cls-6"><path class="cls-7" d="M85.9,28.6a41.7,41.7,0,0,0-18.6,78.9l5.9-11.7a28.6,28.6,0,1,1,25.5,0l5.9,11.7A41.7,41.7,0,0,0,85.9,28.6Z"/></g><path id="SVGID-4" data-name="SVGID" class="cls-2" d="M48.6,28.6a41.7,41.7,0,0,0-18.6,78.9l5.9-11.7a28.6,28.6,0,1,1,25.5,0l5.9,11.7A41.7,41.7,0,0,0,48.6,28.6Z"/><g class="cls-8"><path class="cls-9" d="M85.9,28.6a41.7,41.7,0,0,0-18.6,78.9l5.9-11.7a28.6,28.6,0,1,1,25.5,0l5.9,11.7A41.7,41.7,0,0,0,85.9,28.6Z"/></g><g class="cls-6"><path class="cls-10" d="M48.6,28.6a41.7,41.7,0,0,0-18.6,78.9l5.9-11.7a28.6,28.6,0,1,1,25.5,0l5.9,11.7A41.7,41.7,0,0,0,48.6,28.6Z"/></g></g></svg>